<svg width="18" height="20" viewBox="0 0 18 20" fill="none" xmlns="http://www.w3.org/2000/svg">
<path fill-rule="evenodd" clip-rule="evenodd" d="M0.206249 14.4944C0.726562 13.5981 1.5 11.0622 1.5 7.75C1.5 3.60786 4.85786 0.25 9 0.25C13.1421 0.25 16.5 3.60786 16.5 7.75C16.5 11.0631 17.2744 13.5981 17.7947 14.4944C18.0651 14.9581 18.0671 15.5311 17.7998 15.9967C17.5326 16.4623 17.0369 16.7496 16.5 16.75H12.6741C12.3173 18.4956 10.7816 19.7492 9 19.7492C7.21835 19.7492 5.68267 18.4956 5.32594 16.75H1.5C0.963301 16.7493 0.467886 16.4619 0.200859 15.9963C-0.0661678 15.5308 -0.0641136 14.958 0.206249 14.4944ZM9 18.25C9.95326 18.2497 10.8029 17.6487 11.1206 16.75H6.87938C7.19713 17.6487 8.04674 18.2497 9 18.25ZM16.5 15.25C15.7781 14.0088 15 11.1325 15 7.75C15 4.43629 12.3137 1.75 9 1.75C5.68629 1.75 3 4.43629 3 7.75C3 11.1297 2.22375 14.0059 1.5 15.25H16.5Z" fill="white"/>
</svg>
